<?xml version="1.0" encoding="UTF-8" standalone="no"?>
<svg
   xmlns:dc="http://purl.org/dc/elements/1.1/"
   xmlns:cc="http://creativecommons.org/ns#"
   xmlns:rdf="http://www.w3.org/1999/02/22-rdf-syntax-ns#"
   xmlns:svg="http://www.w3.org/2000/svg"
   xmlns="http://www.w3.org/2000/svg"
   version="1.1"
   id="svg2"
   viewBox="0 0 350 225.00001"
   height="225"
   width="350">
  <defs
     id="defs4" />
  <metadata
     id="metadata7">
    <rdf:RDF>
      <cc:Work
         rdf:about="">
        <dc:format>image/svg+xml</dc:format>
        <dc:type
           rdf:resource="http://purl.org/dc/dcmitype/StillImage" />
        <dc:title></dc:title>
      </cc:Work>
    </rdf:RDF>
  </metadata>
  <g
     transform="translate(0,-827.36216)"
     id="layer1">
    <path
       style="font-style:normal;font-variant:normal;font-weight:900;font-stretch:normal;font-size:medium;line-height:125%;font-family:Lato;-inkscape-font-specification:'Lato Heavy';letter-spacing:0px;word-spacing:0px;fill:#ffd42a;fill-opacity:1;stroke:none;stroke-width:1px;stroke-linecap:butt;stroke-linejoin:miter;stroke-opacity:1"
       d="m 44.332126,902.28962 c -5.212091,5.15208 -13.781462,-7.1352 -19.522919,0.63105 -3.987233,8.99822 9.344279,9.20885 14.59879,12.1684 10.109301,3.54416 11.252484,17.42952 4.867826,24.83413 -8.703754,9.96243 -25.39027,7.69005 -34.4008754,-0.66155 2.1114214,-2.49377 2.9194734,-6.85129 6.5310994,-7.43194 5.564293,2.94844 16.660072,8.81434 19.773935,-0.22287 0.740652,-8.91189 -11.117999,-7.64108 -16.508386,-11.15026 -11.1794914,-5.20426 -9.660877,-23.27015 1.400527,-27.75483 8.47253,-3.94535 19.316808,-2.33944 26.412948,3.69486 -1.050982,1.96434 -2.101963,3.92867 -3.152945,5.89301 z"
       id="path4206" />
    <path
       style="font-style:normal;font-variant:normal;font-weight:900;font-stretch:normal;font-size:medium;line-height:125%;font-family:Lato;-inkscape-font-specification:'Lato Heavy';letter-spacing:0px;word-spacing:0px;fill:#ffd42a;fill-opacity:1;stroke:none;stroke-width:1px;stroke-linecap:butt;stroke-linejoin:miter;stroke-opacity:1"
       d="m 191.65604,906.3434 c 8.94126,-0.58654 17.1984,6.78346 17.40923,15.78349 1.87729,5.76823 -3.15966,7.08539 -7.59587,6.36219 -5.79848,0 -11.59696,0 -17.39544,0 -0.2676,8.44754 10.21135,11.96374 16.34651,7.12228 3.08979,-3.29907 9.11291,2.66227 7.58208,5.16107 -9.11758,8.67452 -27.25277,7.80613 -33.16925,-4.25554 -5.13993,-9.79595 -2.19129,-24.29157 8.79024,-28.63455 2.52465,-1.0937 5.29188,-1.54222 8.0325,-1.53894 z m 0.22521,8.03251 c -5.26407,-1.42124 -11.42612,9.57679 -3.48592,7.35687 3.4391,0 6.8782,0 10.3173,0 0.22115,-3.94072 -2.68262,-7.64306 -6.83138,-7.35687 z"
       id="path4214" />
    <g
       transform="matrix(0.80074774,0,0,0.80074774,-9.0569864,217.31121)"
       id="g4187">
      <g
         style="font-style:normal;font-variant:normal;font-weight:normal;font-stretch:normal;font-size:144px;line-height:125%;font-family:'Open Sans';-inkscape-font-specification:'Open Sans';letter-spacing:0px;word-spacing:0px;fill:#ffd42a;fill-opacity:1;stroke:none;stroke-width:1px;stroke-linecap:butt;stroke-linejoin:miter;stroke-opacity:1"
         id="text4144">
        <path
           id="path4172"
           d="m 153.80591,984.11981 c 3.51723,2.15183 12.18659,7.73126 5.094,11.22071 -16.24082,13.83348 -46.14654,7.51988 -52.62525,-13.79883 -6.93076,-17.78897 1.348,-41.23291 20.59937,-46.82301 12.13478,-3.93029 27.01353,-2.277 36.26001,7.11988 -3.30029,4.36762 -7.43165,12.78555 -13.59375,6.46875 -11.42812,-7.00574 -28.07087,0.88319 -28.9922,14.54296 -2.96026,12.40157 5.51036,28.56408 19.8047,26.6133 5.35955,0.51752 8.99663,-3.59173 13.45312,-5.34376 z"
           style="font-style:normal;font-variant:normal;font-weight:900;font-stretch:normal;font-size:93.75000763px;font-family:Lato;-inkscape-font-specification:'Lato Heavy';fill:#ffd42a;fill-opacity:1" />
        <path
           id="path4176"
           d="m 257.38356,1001.7917 c -6.1581,-0.1847 -4.9262,-10.08951 -11.14454,-1.7695 -9.91921,6.8701 -28.00986,0.2382 -24.43359,-13.50005 3.63935,-11.34913 17.94176,-12.64913 28.07813,-13.04297 2.15669,-12.75923 -12.08694,-10.59364 -19.31251,-6.46875 -9.94466,-2.76859 -5.69942,-11.84485 2.90625,-12.84375 10.84651,-4.43464 26.84031,-1.70228 29.82423,11.36133 1.50126,11.98237 0.40191,24.18431 0.73828,36.26369 -2.21875,0 -4.4375,0 -6.65625,0 z m -16.68751,-8.85939 c 10.02373,2.89654 13.80803,-16.08094 2.01563,-10.17187 -7.07743,-0.8629 -11.13659,10.54969 -2.01563,10.17187 z"
           style="font-style:normal;font-variant:normal;font-weight:900;font-stretch:normal;font-size:93.75000763px;font-family:Lato;-inkscape-font-specification:'Lato Heavy';fill:#ffd42a;fill-opacity:1" />
        <path
           id="path4178"
           d="m 304.07692,963.82293 c -3.93226,2.62212 -23.90032,-5.85134 -16.86328,5.90625 11.2883,2.18584 26.4506,11.08725 18.375,24.39259 -7.76265,11.47063 -25.90772,10.40023 -35.82422,2.41992 3.21956,-10.32992 12.03634,-4.76818 19.74609,-3.87891 13.75342,-8.84875 -13.05946,-9.43669 -16.03125,-17.01563 -6.87442,-10.41305 3.04113,-23.83939 14.75977,-23.13574 5.94514,-0.47207 25.30335,2.62196 15.83789,11.31152 z"
           style="font-style:normal;font-variant:normal;font-weight:900;font-stretch:normal;font-size:93.75000763px;font-family:Lato;-inkscape-font-specification:'Lato Heavy';fill:#ffd42a;fill-opacity:1" />
        <path
           id="path4180"
           d="m 332.6194,1002.5417 c -10.11458,1.0568 -15.7683,-9.36436 -14.25,-18.27954 0,-7.0162 0,-14.0324 0,-21.0486 -5.84475,1.70804 -7.90602,-3.30602 -6.84375,-8.29458 3.16684,-1.51388 9.30549,-0.14294 8.68985,-5.69951 1.19833,-4.43636 1.19443,-11.75304 7.809,-10.14654 6.06765,-1.95113 5.02136,3.21168 4.87615,7.4734 -0.99649,5.27793 0.41116,8.15172 6.1146,6.72973 5.76922,-1.60525 6.48082,1.84712 5.6979,6.794 1.4078,5.62617 -6.21358,2.22315 -9.5116,3.1435 -4.70199,-0.53803 -1.24368,7.08425 -2.3009,10.191 0.38272,5.56204 -0.85354,11.43517 0.79688,16.76213 5.65834,-0.25801 9.7342,1.4305 12.1355,7.56181 -0.96765,3.5109 -9.49756,4.7559 -13.21363,4.8132 z"
           style="font-style:normal;font-variant:normal;font-weight:900;font-stretch:normal;font-size:93.75000763px;font-family:Lato;-inkscape-font-specification:'Lato Heavy';fill:#ffd42a;fill-opacity:1" />
        <path
           id="path4182"
           d="m 373.90602,952.43231 c 14.03849,-1.62559 26.55659,15.13664 20.15625,27.42188 -9.84166,0.534 -19.75502,0.0876 -29.625,0.23437 0.39108,15.22249 16.77799,11.29529 25.71094,7.95704 8.22088,4.8701 2.70769,11.14236 -4.89844,12.9023 -13.68883,5.155 -32.01668,-1.40424 -34.59302,-17.05221 -3.99995,-13.90346 5.23233,-30.70896 20.53052,-31.34326 l 1.3418,-0.0901 1.37695,-0.03 z m 0.28125,10.03125 c -8.76217,-0.6854 -13.18853,12.71595 -2.13597,9.1875 4.18316,-0.71293 14.06961,2.6606 9.62426,-4.92188 -1.34039,-2.80837 -4.4247,-4.41769 -7.48829,-4.26562 z"
           style="font-style:normal;font-variant:normal;font-weight:900;font-stretch:normal;font-size:93.75000763px;font-family:Lato;-inkscape-font-specification:'Lato Heavy';fill:#ffd42a;fill-opacity:1" />
        <path
           id="path4184"
           d="m 404.17996,1001.7917 c 0,-16.20313 0,-32.40626 0,-48.60939 4.60319,0.58613 12.85128,-2.27354 13.07832,4.76027 0.81977,7.32542 9.44547,-11.26072 16.82793,-5.29933 3.95431,1.92587 1.27624,11.61495 -1.78125,13.66406 -7.6848,-2.70669 -15.65481,3.86647 -13.59375,11.78647 0,7.89931 0,15.79861 0,23.69792 -4.84375,0 -9.6875,0 -14.53125,0 z"
           style="font-style:normal;font-variant:normal;font-weight:900;font-stretch:normal;font-size:93.75000763px;font-family:Lato;-inkscape-font-specification:'Lato Heavy';fill:#ffd42a;fill-opacity:1" />
      </g>
      <g
         id="g4165"
         transform="matrix(0.8730057,-0.08456441,0.08456441,0.8730057,-74.989771,319.39956)">
        <path
           id="path4148"
           d="m 262.32111,773.93713 c 0.74962,19.74271 -20.81948,35.61077 -39.44078,29.08424 -19.06985,-5.12197 -27.88899,-30.40739 -16.12968,-46.2742 10.52901,-16.71108 37.28933,-17.65875 48.97407,-1.73432 4.24917,5.32647 6.61334,12.11154 6.59639,18.92428 z"
           style="opacity:1;fill:#b5eaee;fill-opacity:1;stroke:#76cce7;stroke-width:3.00000024;stroke-linecap:round;stroke-linejoin:round;stroke-miterlimit:4;stroke-dasharray:none;stroke-opacity:0.9254902" />
        <path
           id="path4150"
           d="m 245.95644,765.02985 c 0.27046,5.99453 -6.16637,11.11179 -11.91183,9.05846 -5.86321,-1.69207 -8.37827,-9.49998 -4.87146,-14.41238 3.1018,-5.18465 11.32511,-5.49904 14.79106,-0.54017 1.29257,1.67285 1.99649,3.78213 1.99223,5.89409 z"
           style="opacity:1;fill:#2ebbc7;fill-opacity:0.3105023;stroke:none;stroke-width:5;stroke-linecap:round;stroke-linejoin:round;stroke-miterlimit:4;stroke-dasharray:none;stroke-opacity:0.9254902" />
        <path
           id="ellipse4152"
           d="m 233.88849,778.97449 c 0.14368,3.18459 -3.27588,5.90314 -6.32815,4.81231 -3.11483,-0.89891 -4.45096,-5.04686 -2.58797,-7.65658 1.64783,-2.75435 6.01647,-2.92137 7.85775,-0.28696 0.68668,0.8887 1.06064,2.00925 1.05837,3.13123 z"
           style="opacity:1;fill:#2ebbc7;fill-opacity:0.3105023;stroke:none;stroke-width:5;stroke-linecap:round;stroke-linejoin:round;stroke-miterlimit:4;stroke-dasharray:none;stroke-opacity:0.9254902" />
        <path
           id="path4160"
           d="m 200.49848,777.34192 c 1.02632,1.05898 -2.70216,5.0579 -7.27743,12.50026 0,0 0,0 0,0 -1.22283,2.06427 -2.73171,4.46627 -2.99987,6.50742 -0.0399,0.52818 -0.0814,0.87041 0.0337,0.88795 0.0273,-0.0858 0.0304,-0.15705 -0.0544,-0.32834 -0.0703,-0.047 0.1102,-0.0653 0.45421,0.0603 0.47499,0.12562 1.11833,0.14208 1.93474,0.16097 2.25724,0.0271 4.65775,-0.45063 7.49982,-1.0683 3.53651,-0.80404 7.10471,-1.89098 10.96453,-3.1842 4.20215,-1.41071 8.45991,-2.98799 12.86501,-4.74125 5.5161,-2.19545 10.91635,-4.52949 15.97054,-6.7656 8.32037,-3.69772 14.21467,-6.26004 20.59261,-9.64729 0,0 0,0 0,0 2.13819,-1.14223 3.91812,-2.13117 5.54121,-3.26477 1.16512,-0.87311 2.0211,-1.43803 2.51297,-2.11193 0.19046,-0.36769 0.45387,-0.45889 0.44491,-0.31241 0.23995,-0.008 -0.0696,-0.3706 -0.44588,-0.89931 -1.46045,-1.60227 -4.25822,-3.08822 -5.40271,-3.80416 -1.47313,-0.92151 -2.22432,-1.59527 -2.0859,-2.06445 0.12854,-0.4357 1.12833,-0.67405 2.90515,-0.58092 1.57699,0.0827 4.63496,0.48659 7.73645,2.3147 1.03813,0.55276 2.19621,1.64811 2.94439,3.57831 0.43445,1.88397 0.19502,3.68249 -0.61303,5.00703 -0.96105,1.78186 -2.21125,3.20181 -3.4919,4.34245 -1.80709,1.68946 -3.77342,3.16939 -5.90931,4.61766 0,0 -10e-6,1e-5 -10e-6,1e-5 -6.11005,4.16275 -12.70216,7.68084 -20.64035,11.57433 -5.09285,2.5061 -10.58747,5.0129 -16.36382,7.30833 -4.58961,1.82384 -9.11134,3.41677 -13.59076,4.77163 -4.10854,1.24522 -8.12299,2.2559 -12.17313,2.92614 -3.14382,0.54542 -6.37339,0.85659 -9.72717,0.57914 -1.25581,-0.0938 -2.62775,-0.34921 -4.05467,-0.84691 -1.16905,-0.37061 -2.40727,-1.11545 -3.56842,-2.25294 -1.0919,-1.17948 -1.73483,-2.56544 -1.9472,-4.01012 -0.18849,-1.71213 0.03,-3.13172 0.43371,-4.22558 1.32603,-3.75715 3.57991,-6.43461 5.33087,-8.26775 0,0 0,0 0,0 6.42706,-7.00748 11.59044,-9.36989 12.18113,-8.7604 z"
           style="fill:#2fb3bc;fill-opacity:1;fill-rule:evenodd;stroke:none;stroke-width:1px;stroke-linecap:butt;stroke-linejoin:miter;stroke-opacity:1" />
      </g>
    </g>
    <path
       style="font-style:normal;font-variant:normal;font-weight:900;font-stretch:normal;font-size:medium;line-height:125%;font-family:Lato;-inkscape-font-specification:'Lato Heavy';letter-spacing:0px;word-spacing:0px;fill:#ffd42a;fill-opacity:1;stroke:none;stroke-width:1px;stroke-linecap:butt;stroke-linejoin:miter;stroke-opacity:1"
       d="m 54.614385,958.21684 c 0,-17.09095 0,-34.18191 0,-51.27287 3.188111,0.39211 6.972438,-0.96768 9.646509,1.09789 0.964381,8.04713 6.309712,-3.07806 11.448195,-1.74537 8.974661,-1.55664 15.22175,7.3166 15.792868,15.35183 1.714112,9.85418 -2.720461,22.70708 -13.701467,24.60365 -3.841803,2.30502 -10.61107,-3.35297 -11.550238,-1.71144 0,4.55877 0,9.11755 0,13.67631 -3.878622,0 -7.757245,0 -11.635867,0 z m 18.992733,-43.12777 c -4.854506,-0.3794 -8.555444,3.65011 -7.356866,8.30808 0,3.96193 0,7.92386 0,11.88578 7.114952,7.65032 15.966178,-2.67088 13.484468,-10.67403 -0.107236,-3.80946 -1.171037,-9.66429 -6.127602,-9.51983 z"
       id="path4208" />
    <path
       style="font-style:normal;font-variant:normal;font-weight:900;font-stretch:normal;font-size:medium;line-height:125%;font-family:Lato;-inkscape-font-specification:'Lato Heavy';letter-spacing:0px;word-spacing:0px;fill:#ffd42a;fill-opacity:1;stroke:none;stroke-width:1px;stroke-linecap:butt;stroke-linejoin:miter;stroke-opacity:1"
       d="m 166.558,916.17759 c -4.62598,3.54938 -12.44266,-5.67841 -16.7031,1.76414 -3.03262,5.81502 -3.3456,15.23556 2.73067,19.21796 5.44849,4.16562 11.05112,-6.40841 15.03271,-0.23127 5.55763,4.15957 -3.91977,7.85482 -7.63831,8.86433 -8.58875,2.50369 -18.95482,-1.28726 -22.24303,-10.00251 -4.35312,-10.02703 -1.15092,-24.53617 10.15557,-28.26859 7.33193,-2.45544 16.30189,-1.28586 21.74336,4.56461 -1.02596,1.36378 -2.05191,2.72755 -3.07787,4.09133 z"
       id="path4212" />
    <g
       transform="matrix(0.80074774,0,0,0.80074774,-0.4370175,204.66859)"
       id="g4259">
      <path
         style="fill:#f60;fill-rule:evenodd;stroke:none;stroke-width:1px;stroke-linecap:butt;stroke-linejoin:miter;stroke-opacity:1"
         d="m 51.430059,924.03534 c 0.626559,0.35165 -0.122929,1.51941 0.576448,3.53471 10e-7,0 10e-7,10e-6 10e-7,10e-6 0.259437,0.83783 0.771512,1.68022 1.61652,2.61198 0.80988,0.88334 1.84954,1.65265 3.227425,2.47101 1.403216,0.81957 2.997225,1.51016 4.892339,2.15253 3.999325,1.35576 8.556099,2.10839 14.10707,2.29875 5.698465,0.17742 11.869913,-0.39473 18.520227,-1.87651 11.227671,-2.48251 22.700921,-7.49044 34.049521,-15.2193 3.67812,-2.50496 7.16479,-5.17552 10.44306,-7.93347 0,0 0,0 0,0 16.38323,-13.78621 28.02201,-30.25885 35.62121,-41.80233 7.78026,-11.8185 12.00847,-19.3901 13.27838,-18.81331 0.99914,0.4538 -1.09195,9.00906 -7.56459,22.08482 -6.35326,12.83458 -17.42655,30.72385 -34.88563,46.03297 0,0 0,0 0,0 -3.4834,3.05487 -7.23795,5.98961 -11.25125,8.7196 -12.37292,8.4165 -25.32527,13.62066 -37.94532,15.82054 -7.46653,1.29015 -14.479255,1.43419 -20.860125,0.67829 -6.158283,-0.71355 -11.434462,-2.27483 -15.848348,-4.48834 -2.111305,-1.05792 -3.946393,-2.26516 -5.508335,-3.60691 -1.539997,-1.30811 -2.732765,-2.75406 -3.565793,-4.25911 -0.912564,-1.62286 -1.221881,-3.26857 -1.152171,-4.63392 0,0 10e-7,0 10e-7,0 0.224655,-3.30217 2.110469,-3.84996 2.24936,-3.77201 z"
         id="path4201" />
      <g
         id="g4251">
        <path
           id="rect4232"
           d="m 217.4372,798.84301 c 11.45373,6.0559 -1.09436,49.80261 -16.41752,63.47459 -11.94934,10.66172 -28.87863,1.71075 -26.79558,-14.16751 2.67117,-20.36143 31.75936,-55.36297 43.2131,-49.30708 z"
           style="opacity:1;fill:white;fill-opacity:1;stroke:none;stroke-width:3;stroke-linecap:round;stroke-linejoin:round;stroke-miterlimit:4;stroke-dasharray:none;stroke-opacity:0.9254902" />
        <path
           style="fill:#ff2a2a;fill-rule:evenodd;stroke:none;stroke-width:1px;stroke-linecap:butt;stroke-linejoin:miter;stroke-opacity:1"
           d="m 203.29988,853.06755 c -0.87144,0.45715 -1.32611,1.66331 -1.80695,2.89038 -1.37619,3.51198 -0.25289,0.58042 -1.87881,4.5736 -0.58478,1.38791 1.62594,2.9212 0.78456,4.60415 -0.41256,0.82521 -4.96817,6.0785 -5.36655,6.91397 -0.95413,1.93706 -3.4634,5.60424 -1.68927,7.17203 l 0,10e-6 0,0 0,0 0,0 0,0 0,0 1e-5,1e-5 0.0122,0.0106 c 0,0 -1e-5,2e-5 0.0121,0.0105 l 0,0 0,0 0,0 1e-5,0 0,0 1e-5,10e-6 0,0 c 1.81191,1.54172 6.36417,-1.16255 11.04278,-6.44772 0.6771,-0.94527 1.32707,-2.00057 1.90993,-3.1612 1.16052,-2.3109 1.89527,-4.72316 2.17849,-7.06489 0.44161,-3.32458 -0.48261,-6.19232 -1.7133,-7.88483 -1.25211,-1.72194 -2.60862,-2.07646 -3.48523,-1.61661 z"
           id="path4249" />
        <path
           style="opacity:1;fill:#8bdce2;fill-opacity:1;stroke:none;stroke-width:3;stroke-linecap:round;stroke-linejoin:round;stroke-miterlimit:4;stroke-dasharray:none;stroke-opacity:0.9254902"
           d="m 210.77634,809.27355 c 3.39981,1.79757 -0.32483,14.78291 -4.87321,18.84116 -3.54693,3.16472 -8.57205,0.50781 -7.95373,-4.20534 0.79288,-6.04388 9.42713,-16.4334 12.82694,-14.63582 z"
           id="path4235" />
        <circle
           r="3.160655"
           cy="836.28827"
           cx="196.24792"
           id="path4237"
           style="opacity:1;fill:#8bdce2;fill-opacity:1;stroke:none;stroke-width:3;stroke-linecap:round;stroke-linejoin:round;stroke-miterlimit:4;stroke-dasharray:none;stroke-opacity:0.9254902" />
        <circle
           style="opacity:1;fill:#8bdce2;fill-opacity:1;stroke:none;stroke-width:3;stroke-linecap:round;stroke-linejoin:round;stroke-miterlimit:4;stroke-dasharray:none;stroke-opacity:0.9254902"
           id="circle4239"
           cx="190.50128"
           cy="846.6322"
           r="3.160655" />
        <path
           id="path4242"
           d="m 179.00799,840.0236 c -0.21602,0.96007 -1.26341,1.71142 -2.32422,2.49347 -3.03613,2.23826 -0.49519,0.39449 -3.93148,2.99852 -1.18927,0.92407 -3.24249,-0.81447 -4.65033,0.43382 -0.69031,0.61208 -4.58552,6.37211 -5.28942,6.97315 -1.62411,1.42297 -4.51688,4.79588 -6.49043,3.48797 l -1e-5,0 0,0 0,0 0,0 0,0 0,0 -1e-5,0 -0.0134,-0.009 c 0,0 -1e-5,10e-6 -0.0133,-0.009 l 0,0 0,0 0,0 0,-10e-6 0,0 -1e-5,0 0,0 c -1.95815,-1.35115 -0.52423,-6.44821 3.36993,-12.3353 0.73782,-0.89869 1.58894,-1.79964 2.55916,-2.66303 1.9318,-1.71908 4.07169,-3.05313 6.26033,-3.93279 3.097,-1.28703 6.10623,-1.13653 8.05959,-0.38582 1.98734,0.76377 2.68087,1.9823 2.46357,2.94806 z"
           style="fill:#ff2a2a;fill-rule:evenodd;stroke:none;stroke-width:1px;stroke-linecap:butt;stroke-linejoin:miter;stroke-opacity:1" />
      </g>
    </g>
    <path
       style="font-style:normal;font-variant:normal;font-weight:900;font-stretch:normal;font-size:medium;line-height:125%;font-family:Lato;-inkscape-font-specification:'Lato Heavy';letter-spacing:0px;word-spacing:0px;fill:#ffd42a;fill-opacity:1;stroke:none;stroke-width:1px;stroke-linecap:butt;stroke-linejoin:miter;stroke-opacity:1"
       d="m 124.88939,945.86782 c -4.62715,1.05281 -3.60666,-7.82819 -7.54455,-2.28965 -6.16962,4.56302 -18.199954,4.32189 -20.742801,-4.24145 -2.789012,-8.02201 5.229621,-14.04838 12.342571,-15.07268 5.26477,-0.78885 14.04221,0.12703 8.51284,-7.63603 -5.44581,-5.90411 -13.68276,6.23018 -17.83712,-1.36709 -4.448514,-5.0128 5.83791,-7.24579 9.44804,-8.46651 8.08239,-2.24746 18.57477,1.00778 20.55982,10.03535 1.17056,8.78517 0.34299,17.73898 0.59118,26.60096 1.09,4.06383 -2.96568,1.90171 -5.32998,2.4371 z m -13.36248,-7.09413 c 4.70049,0.31486 8.6257,-3.28935 7.35687,-7.97027 -3.78902,-3.66283 -19.520018,5.16915 -7.35687,7.97027 z"
       id="path4210" />
  </g>
</svg>
